<?xml version="1.0" encoding="UTF-8"?>
<!DOCTYPE svg PUBLIC "-//W3C//DTD SVG 1.1//EN" "http://www.w3.org/Graphics/SVG/1.1/DTD/svg11.dtd">
<svg xmlns="http://www.w3.org/2000/svg" version="1.1" width="300px" height="300px" style="shape-rendering:geometricPrecision; text-rendering:geometricPrecision; image-rendering:optimizeQuality; fill-rule:evenodd; clip-rule:evenodd" xmlns:xlink="http://www.w3.org/1999/xlink">
<g><path style="opacity:1" fill="#fdfdfd" d="M 212.5,74.5 C 214.2,81.03 215.366,87.6967 216,94.5C 216.141,117.521 216.807,140.521 218,163.5C 218.718,174.919 220.884,185.919 224.5,196.5C 230.646,216.639 241.312,233.973 256.5,248.5C 251.645,255.522 245.645,261.355 238.5,266C 231.467,268.921 224.134,270.088 216.5,269.5C 207.561,268.123 198.561,267.457 189.5,267.5C 179.27,270.95 170.27,276.45 162.5,284C 154.165,289.092 145.165,290.759 135.5,289C 125.363,286.066 115.363,282.732 105.5,279C 100.167,278.333 94.8333,278.333 89.5,279C 85.0484,279.601 81.0484,281.101 77.5,283.5C 73.0466,285.403 68.7132,287.236 64.5,289C 61.262,281.498 58.262,273.998 55.5,266.5C 47.7811,227.05 43.1144,187.217 41.5,147C 41.3885,135.964 42.0552,125.131 43.5,114.5C 44.889,109.731 45.5557,104.731 45.5,99.5C 45.8333,96.1667 46.1667,92.8333 46.5,89.5C 50.6324,68.6245 59.1324,49.6245 72,32.5C 95.0491,9.01383 122.549,1.84716 154.5,11C 186.208,20.8746 205.542,42.0413 212.5,74.5 Z"/></g>
<g><path style="opacity:0.875" fill="#292929" d="M 215.5,72.5 C 214.778,73.5511 213.778,74.2178 212.5,74.5C 205.542,42.0413 186.208,20.8746 154.5,11C 122.549,1.84716 95.0491,9.01383 72,32.5C 59.1324,49.6245 50.6324,68.6245 46.5,89.5C 46.0679,88.2905 45.4013,87.2905 44.5,86.5C 48.9469,60.4356 60.6136,38.269 79.5,20C 100.329,5.2338 123.329,0.567134 148.5,6C 184.617,14.2839 206.951,36.4506 215.5,72.5 Z"/></g>
<g><path style="opacity:1" fill="#0a0a0a" d="M 86.5,75.5 C 101.192,74.0185 106.692,80.3518 103,94.5C 98.8244,100.112 93.3244,101.945 86.5,100C 75.9508,91.7192 75.9508,83.5526 86.5,75.5 Z"/></g>
<g><path style="opacity:1" fill="#090909" d="M 158.5,77.5 C 165.331,76.0514 170.831,78.0514 175,83.5C 178.385,97.5547 172.885,103.721 158.5,102C 147.951,93.7192 147.951,85.5526 158.5,77.5 Z"/></g>
<g><path style="opacity:1" fill="#0a0a0a" d="M 121.5,101.5 C 135.317,100.488 140.817,106.822 138,120.5C 133.528,129.955 126.861,131.955 118,126.5C 114.734,121.298 113.734,115.631 115,109.5C 116.479,106.172 118.645,103.506 121.5,101.5 Z"/></g>
<g><path style="opacity:1" fill="#b8b8b8" d="M 45.5,99.5 C 45.5557,104.731 44.889,109.731 43.5,114.5C 43.4443,109.269 44.111,104.269 45.5,99.5 Z"/></g>
<g><path style="opacity:1" fill="#494949" d="M 39.5,121.5 C 40.7502,138.832 40.7502,156.165 39.5,173.5C 38.1667,156.167 38.1667,138.833 39.5,121.5 Z"/></g>
<g><path style="opacity:0.99" fill="#2f2f2f" d="M 215.5,72.5 C 218.147,81.8523 219.647,91.5189 220,101.5C 220.161,123.853 220.827,146.186 222,168.5C 222.855,176.965 224.355,185.299 226.5,193.5C 224.952,193.821 224.285,194.821 224.5,196.5C 220.884,185.919 218.718,174.919 218,163.5C 216.807,140.521 216.141,117.521 216,94.5C 215.366,87.6967 214.2,81.03 212.5,74.5C 213.778,74.2178 214.778,73.5511 215.5,72.5 Z"/></g>
<g><path style="opacity:0.992" fill="#292929" d="M 44.5,86.5 C 45.4013,87.2905 46.0679,88.2905 46.5,89.5C 46.1667,92.8333 45.8333,96.1667 45.5,99.5C 44.111,104.269 43.4443,109.269 43.5,114.5C 42.0552,125.131 41.3885,135.964 41.5,147C 43.1144,187.217 47.7811,227.05 55.5,266.5C 54.8333,267.167 54.1667,267.833 53.5,268.5C 50.0658,258.184 47.5658,247.517 46,236.5C 42.9272,215.585 40.7605,194.585 39.5,173.5C 40.7502,156.165 40.7502,138.832 39.5,121.5C 39.7847,109.507 41.4514,97.84 44.5,86.5 Z"/></g>
<g><path style="opacity:0.937" fill="#2c2c2c" d="M 226.5,193.5 C 229.909,203.652 234.409,213.319 240,222.5C 246.675,231.336 253.509,240.003 260.5,248.5C 254.62,258.212 246.62,265.712 236.5,271C 233.568,271.953 230.568,272.453 227.5,272.5C 225.016,271.631 222.349,270.964 219.5,270.5C 216.868,271.44 214.202,271.607 211.5,271C 213.382,270.802 215.048,270.302 216.5,269.5C 224.134,270.088 231.467,268.921 238.5,266C 245.645,261.355 251.645,255.522 256.5,248.5C 241.312,233.973 230.646,216.639 224.5,196.5C 224.285,194.821 224.952,193.821 226.5,193.5 Z"/></g>
<g><path style="opacity:0.989" fill="#2a2a2a" d="M 189.5,267.5 C 198.561,267.457 207.561,268.123 216.5,269.5C 215.048,270.302 213.382,270.802 211.5,271C 214.202,271.607 216.868,271.44 219.5,270.5C 222.349,270.964 225.016,271.631 227.5,272.5C 217.821,273.877 208.154,273.21 198.5,270.5C 195.408,269.816 192.408,268.816 189.5,267.5 Z"/></g>
<g><path style="opacity:0.975" fill="#2c2c2c" d="M 189.5,267.5 C 192.408,268.816 195.408,269.816 198.5,270.5C 193.667,270.375 189,271.208 184.5,273C 176.167,278.667 167.833,284.333 159.5,290C 152.578,293.032 145.578,293.865 138.5,292.5C 141.641,291.679 144.975,291.179 148.5,291C 143.146,290.471 137.813,290.638 132.5,291.5C 122.421,288.629 112.421,285.463 102.5,282C 95.3647,281.593 88.3647,282.426 81.5,284.5C 80.1667,284.167 78.8333,283.833 77.5,283.5C 81.0484,281.101 85.0484,279.601 89.5,279C 94.8333,278.333 100.167,278.333 105.5,279C 115.363,282.732 125.363,286.066 135.5,289C 145.165,290.759 154.165,289.092 162.5,284C 170.27,276.45 179.27,270.95 189.5,267.5 Z"/></g>
<g><path style="opacity:1" fill="#323232" d="M 55.5,266.5 C 58.262,273.998 61.262,281.498 64.5,289C 68.7132,287.236 73.0466,285.403 77.5,283.5C 78.8333,283.833 80.1667,284.167 81.5,284.5C 75.544,288.303 69.544,291.803 63.5,295C 58.8843,286.653 55.551,277.82 53.5,268.5C 54.1667,267.833 54.8333,267.167 55.5,266.5 Z"/></g>
<g><path style="opacity:1" fill="#3d3d3d" d="M 138.5,292.5 C 136.265,292.795 134.265,292.461 132.5,291.5C 137.813,290.638 143.146,290.471 148.5,291C 144.975,291.179 141.641,291.679 138.5,292.5 Z"/></g>
</svg>
